#N canvas 0 0 1920 1033 10;
#X obj 1244 356 cnv 15 417 274 empty empty empty 20 12 0 14 -165348
-66577 0;
#X obj 32 359 cnv 15 618 215 empty empty empty 20 12 0 14 -91747 -66577
0;
#X obj 31 47 cnv 15 627 236 empty empty empty 20 12 0 14 -99354 -66577
0;
#X obj 698 394 cnv 15 517 180 empty empty empty 20 12 0 14 -157527
-66577 0;
#X obj 1194 44 cnv 15 402 266 empty empty empty 20 12 0 14 -99920 -66577
0;
#X obj 697 44 cnv 15 472 298 empty empty empty 20 12 0 14 -74779 -66577
0;
#X obj 1632 42 import mrpeach;
#N canvas 1288 13 619 1030 router 0;
#X obj 86 84 inlet;
#X obj 146 113 packOSC;
#X obj 190 226 udpsend;
#X obj 331 85 bng 15 250 50 0 empty empty empty 17 7 0 10 -1 -44993
-262144;
#X msg 348 225 disconnect;
#X obj 367 87 bng 15 250 50 0 empty empty empty 17 7 0 10 -1 -61377
-262144;
#X msg 226 140 connect localhost 5612;
#X text 330 67 on;
#X text 365 70 off;
#X connect 0 0 1 0;
#X connect 1 0 2 0;
#X connect 3 0 6 0;
#X connect 4 0 2 0;
#X connect 5 0 4 0;
#X connect 6 0 2 0;
#X coords 0 -1 1 1 85 60 1 315 55;
#X restore 1631 95 pd router;
#X obj 1631 67 r messages;
#X text 966 525 +;
#X text 942 497 -;
#X floatatom 1238 103 5 0 0 0 - - -, f 5;
#X obj 1211 127 metro;
#X obj 1211 104 tgl 15 0 empty empty empty 17 7 0 10 -1 -4034 -12225
0 1;
#X obj 1211 152 random 365;
#X obj 729 73 expr (60/$f1) *1000;
#X floatatom 729 93 5 0 0 0 - - -, f 5;
#X obj 702 117 metro;
#X obj 702 93 tgl 15 0 empty empty empty 17 7 0 10 -1 -12225 -20417
0 1;
#X obj 702 142 random 255;
#X obj 879 72 expr (60/$f1) *1000;
#X floatatom 879 92 6 0 0 0 - - -, f 6;
#X obj 852 116 metro;
#X obj 852 93 tgl 15 0 empty empty empty 17 7 0 10 -1 -4033 -12225
0 1;
#X obj 852 141 random 255;
#X obj 201 181 expr (60/$f1) *1000;
#X floatatom 228 203 5 0 0 0 - - -, f 5;
#X obj 201 227 metro;
#X obj 201 204 tgl 15 0 empty empty empty 17 7 0 10 -1 -36801 -4033
0 1;
#X obj 201 252 random 29;
#X obj 1039 70 expr (60/$f1) *1000;
#X floatatom 1039 90 5 0 0 0 - - -, f 5;
#X obj 1012 114 metro;
#X obj 1012 90 tgl 15 0 empty empty empty 17 7 0 10 -1 -4036 -4040
0 1;
#X msg 201 159 130;
#X msg 1238 61 130;
#X msg 1039 48 135;
#X obj 1238 83 expr (60/$f1) *116;
#X msg 879 50 190;
#X msg 729 51 70;
#N canvas 0 0 450 300 backColor 0;
#X obj 418 715 s messages;
#X msg 418 687 /backColor \$1 \$2 \$3;
#X obj 418 662 pack f f f;
#X obj 425 636 t b f;
#X obj 468 635 t b f;
#X obj 468 610 inlet;
#X obj 425 609 inlet;
#X obj 387 609 inlet;
#X connect 1 0 0 0;
#X connect 2 0 1 0;
#X connect 3 0 2 0;
#X connect 3 1 2 1;
#X connect 4 0 2 0;
#X connect 4 1 2 2;
#X connect 5 0 4 0;
#X connect 6 0 3 0;
#X connect 7 0 2 0;
#X restore 705 311 pd backColor;
#X obj 774 191 vsl 15 100 0 255 0 0 empty empty empty 0 -9 0 10 -1
-20417 -12225 0 1;
#X obj 739 191 vsl 15 100 0 255 0 0 empty empty empty 0 -9 0 10 -1
-4038 -28609 0 1;
#X obj 705 191 vsl 15 100 0 255 0 0 empty empty empty 0 -9 0 10 -1
-4038 -28609 0 1;
#X text 707 170 R;
#X text 741 170 G;
#X text 777 170 B;
#N canvas 0 0 450 300 color 0;
#X obj 220 411 s messages;
#X obj 268 313 t b f;
#X obj 310 312 t b f;
#X msg 220 363 /color \$1 \$2 \$3 \$4;
#X obj 240 339 pack f f f f;
#X obj 353 311 t b f;
#X obj 353 284 inlet;
#X obj 310 284 inlet;
#X obj 268 284 inlet;
#X obj 497 282 inlet;
#X obj 388 215 inlet;
#X msg 452 387 /color \$1 255 255 255;
#X obj 452 361 pack f f;
#X obj 497 315 t b f;
#X connect 1 0 4 0;
#X connect 1 1 4 1;
#X connect 2 0 4 0;
#X connect 2 1 4 2;
#X connect 3 0 0 0;
#X connect 4 0 3 0;
#X connect 5 0 4 0;
#X connect 5 1 4 3;
#X connect 6 0 5 0;
#X connect 7 0 2 0;
#X connect 8 0 1 0;
#X connect 9 0 13 0;
#X connect 10 0 4 0;
#X connect 10 0 12 0;
#X connect 11 0 0 0;
#X connect 12 0 11 0;
#X connect 13 0 12 0;
#X connect 13 1 12 1;
#X restore 844 311 pd color;
#X obj 862 191 vsl 15 100 0 255 0 0 empty empty empty 0 -9 0 10 -1
-20417 -12225 0 1;
#X text 865 170 B;
#X obj 837 192 vsl 15 100 0 255 0 0 empty empty empty 0 -9 0 10 -1
-4038 -28609 0 1;
#X text 839 171 G;
#X obj 811 192 vsl 15 100 0 255 0 0 empty empty empty 0 -9 0 10 -1
-4038 -28609 0 1;
#X text 813 171 R;
#X obj 916 281 bng 15 250 50 0 empty empty empty 17 7 0 10 -1 -28609
-36801;
#X text 911 260 default color;
#X obj 889 241 hradio 15 0 0 3 empty empty empty 0 -8 0 10 -1 -20417
-4036 0;
#X text 889 219 layer;
#X obj 1012 139 random 255;
#N canvas 0 0 450 300 pos 0;
#X obj 270 309 t b f;
#X obj 246 382 s messages;
#X msg 246 358 /pos \$1 \$2 \$3;
#X obj 246 335 pack f f f, f 11;
#X obj 314 309 t b f;
#X obj 314 285 inlet;
#X obj 270 284 inlet;
#X obj 225 284 inlet;
#X connect 0 0 3 0;
#X connect 0 1 3 1;
#X connect 2 0 1 0;
#X connect 3 0 2 0;
#X connect 4 0 3 0;
#X connect 4 1 3 2;
#X connect 5 0 4 0;
#X connect 6 0 0 0;
#X connect 7 0 3 0;
#X restore 1250 290 pd pos;
#X obj 1288 189 vsl 15 80 0 1024 0 0 empty empty empty 0 -9 0 10 -1
-4033 -4040 0 1;
#X obj 1266 189 vsl 15 80 0 1024 0 0 empty empty empty 0 -9 0 10 -1
-4033 -4040 0 1;
#X obj 1210 258 hradio 15 0 0 3 empty empty empty 0 -8 0 10 -1 -12225
-44993 0;
#N canvas 0 0 450 300 scale 0;
#X obj 266 403 s messages;
#X obj 291 317 t b f;
#X msg 266 375 /scale \$1 \$2 \$3;
#X obj 266 346 pack f f f;
#X obj 335 318 t b f;
#X obj 335 292 inlet;
#X obj 291 293 inlet;
#X obj 237 293 inlet;
#X connect 1 0 3 0;
#X connect 1 1 3 1;
#X connect 2 0 0 0;
#X connect 3 0 2 0;
#X connect 4 0 3 0;
#X connect 4 1 3 2;
#X connect 5 0 4 0;
#X connect 6 0 1 0;
#X connect 7 0 3 0;
#X restore 1346 290 pd scale;
#X floatatom 1423 256 5 1 100 0 - - -, f 5;
#X floatatom 1383 256 5 1 100 0 - - -, f 5;
#X obj 1331 257 hradio 15 0 0 3 empty empty empty 0 -8 0 10 -1 -12225
-44993 0;
#X obj 1564 187 vsl 15 80 0 90 0 0 empty empty empty 0 -9 0 10 -1 -4040
-4042 0 1;
#N canvas 0 0 450 300 rot 0;
#X obj 429 448 s messages;
#X msg 417 425 /rotZ \$1 \$2;
#X msg 405 399 /rotX \$1 \$2;
#X msg 427 378 /rotY \$1 \$2;
#X obj 350 427 pack f f;
#X obj 501 399 pack f f;
#X obj 363 396 t b f;
#X obj 363 368 inlet;
#X obj 425 324 t b f;
#X obj 425 296 inlet;
#X obj 426 353 pack f f;
#X obj 512 368 t b f;
#X obj 512 340 inlet;
#X obj 323 301 inlet;
#X connect 1 0 0 0;
#X connect 2 0 0 0;
#X connect 3 0 0 0;
#X connect 4 0 1 0;
#X connect 5 0 2 0;
#X connect 6 0 4 0;
#X connect 6 1 4 1;
#X connect 7 0 6 0;
#X connect 8 0 10 0;
#X connect 8 1 10 1;
#X connect 9 0 8 0;
#X connect 10 0 3 0;
#X connect 11 0 5 0;
#X connect 11 1 5 1;
#X connect 12 0 11 0;
#X connect 13 0 4 0;
#X connect 13 0 10 0;
#X connect 13 0 5 0;
#X restore 1501 290 pd rot;
#X text 1566 166 Z;
#X obj 1542 187 vsl 15 80 0 90 0 0 empty empty empty 0 -9 0 10 -1 -4040
-4042 0 1;
#X text 1544 167 Y;
#X obj 1519 187 vsl 15 80 0 90 0 0 empty empty empty 0 -9 0 10 -1 -4040
-4042 0 1;
#X text 1521 166 X;
#X obj 1465 257 hradio 15 0 0 3 empty empty empty 0 -8 0 10 -1 -12225
-44993 0;
#X floatatom 1471 103 5 0 0 0 - - -, f 5;
#X obj 1444 127 metro;
#X obj 1444 104 tgl 15 0 empty empty empty 17 7 0 10 -1 -4034 -12225
0 1;
#X obj 1444 152 random 365;
#X msg 1471 61 130;
#X obj 1471 83 expr (60/$f1) *116;
#N canvas 0 0 450 300 opacity 0;
#X obj 209 319 s messages;
#X msg 209 300 /opacity \$1 \$2;
#X obj 209 276 pack f f;
#X obj 227 243 t b f;
#X obj 227 215 inlet;
#X obj 183 243 inlet;
#X connect 1 0 0 0;
#X connect 2 0 1 0;
#X connect 3 0 2 0;
#X connect 3 1 2 1;
#X connect 4 0 3 0;
#X connect 5 0 2 0;
#X restore 708 547 pd opacity;
#X obj 765 519 hsl 70 15 0 200 0 0 empty empty empty -2 -8 0 10 -1
-36801 -4033 0 1;
#X obj 708 519 hradio 15 0 0 3 empty empty empty 0 -8 0 10 -1 -12225
-44993 0;
#X text 1213 236 layer;
#X text 1336 235 layer;
#X text 1468 235 layer;
#X text 709 493 layer;
#X msg 765 493 100;
#N canvas 0 0 450 300 speed 0;
#X obj 223 310 s messages;
#X msg 223 285 /speed \$1 \$2;
#X obj 222 263 pack f f;
#X obj 269 230 t b f;
#X obj 290 186 inlet;
#X obj 248 186 inlet;
#X obj 222 231 inlet;
#X connect 1 0 0 0;
#X connect 2 0 1 0;
#X connect 3 0 2 0;
#X connect 3 1 2 1;
#X connect 4 0 3 0;
#X connect 5 0 3 0;
#X connect 6 0 2 0;
#X restore 862 549 pd speed;
#X obj 907 526 hsl 50 15 1 5 0 0 empty empty empty -2 -8 0 10 -1 -12225
-53185 0 1;
#X obj 884 500 hsl 50 15 -1 -5 0 0 empty empty empty -2 -8 0 10 -1
-4033 -12225 0 1;
#X obj 862 475 hradio 15 0 0 3 empty empty empty 0 -8 0 10 -1 -12225
-44993 0;
#X text 865 453 layer;
#X text 1290 170 Y;
#X text 1268 170 X;
#N canvas 0 0 450 300 setFrame 0;
#X obj 178 208 bng 15 250 50 0 empty empty empty 17 7 0 10 -1 -12225
-44993;
#X obj 178 161 key;
#X obj 178 390 s messages;
#X obj 178 283 expr $f1 + $f2;
#X obj 178 258 spigot;
#X obj 178 184 sel 107;
#X msg 178 366 /setFrame \$1 \$2;
#X obj 178 338 pack f f;
#X obj 226 312 t b f;
#X obj 178 132 inlet;
#X obj 259 230 inlet;
#X obj 259 262 inlet;
#X obj 126 300 inlet;
#X obj 178 230 metro;
#X obj 239 203 expr (60/$f1) *1000;
#X obj 239 180 inlet;
#X connect 0 0 13 0;
#X connect 1 0 5 0;
#X connect 3 0 8 0;
#X connect 4 0 3 0;
#X connect 5 0 0 0;
#X connect 6 0 2 0;
#X connect 7 0 6 0;
#X connect 8 0 7 0;
#X connect 8 1 7 1;
#X connect 9 0 1 0;
#X connect 10 0 4 1;
#X connect 11 0 3 1;
#X connect 12 0 7 0;
#X connect 13 0 4 0;
#X connect 14 0 13 1;
#X connect 15 0 14 0;
#X restore 1023 552 pd setFrame;
#X obj 1038 430 bng 15 250 50 0 empty empty empty 17 7 0 10 -1 -28609
-36801;
#X text 1026 410 reset loop;
#X obj 1115 533 tgl 15 0 empty empty empty 17 7 0 10 -1 -28609 -28609
0 1;
#X text 1109 513 enable bpm loop;
#X floatatom 1070 513 5 0 0 0 - - -, f 5;
#X text 1061 494 set frame;
#X obj 991 527 hradio 15 0 0 3 empty empty empty 0 -8 0 10 -1 -12225
-44993 0;
#X text 994 505 layer;
#X floatatom 1054 472 5 0 400 0 - - -, f 5;
#X text 1052 452 choose bpm;
#N canvas 0 22 1920 1034 load3D 0;
#X obj 210 348 s messages;
#X obj 107 192 inlet;
#X msg 284 289 /load3D \$1 dwarf.x;
#X msg 419 289 /load3D \$1 Pieza2.stl;
#X obj 89 255 pack f f;
#X obj 284 256 pack f f;
#X obj 419 257 pack f f;
#X obj 437 226 t b f;
#X obj 302 227 t b f;
#X obj 107 224 t b f;
#X obj 302 197 inlet;
#X obj 437 196 inlet;
#X obj 284 139 inlet;
#X msg 89 289 /load3D \$1 astroBoy_walk.dae;
#X connect 1 0 9 0;
#X connect 2 0 0 0;
#X connect 3 0 0 0;
#X connect 4 0 13 0;
#X connect 5 0 2 0;
#X connect 6 0 3 0;
#X connect 7 0 6 0;
#X connect 7 1 6 1;
#X connect 8 0 5 0;
#X connect 8 1 5 1;
#X connect 9 0 4 0;
#X connect 9 1 4 1;
#X connect 10 0 8 0;
#X connect 11 0 7 0;
#X connect 12 0 4 0;
#X connect 12 0 5 0;
#X connect 12 0 6 0;
#X connect 13 0 0 0;
#X restore 417 530 pd load3D;
#X obj 383 496 hradio 15 0 0 3 empty empty empty 0 -8 0 10 -1 -12225
-44993 0;
#X text 386 474 layer;
#X obj 440 496 bng 15 250 50 0 empty empty empty 17 7 0 10 -1 -28609
-36801;
#X obj 464 496 bng 15 250 50 0 empty empty empty 17 7 0 10 -1 -28609
-36801;
#X obj 488 496 bng 15 250 50 0 empty empty empty 17 7 0 10 -1 -28609
-36801;
#X text 452 474 models;
#N canvas 0 22 1920 1034 random 0;
#X obj 228 181 s messages;
#X msg 228 149 /random \$1;
#X obj 228 117 inlet;
#X obj 333 335 s messages;
#X obj 325 110 bng 15 250 50 0 empty empty empty 17 7 0 10 -1 -28609
-36801;
#X msg 331 209 /width 1 \$1;
#X msg 333 307 /height 1 \$1;
#X obj 342 134 inlet;
#X obj 341 232 inlet;
#X obj 342 158 t b f;
#X obj 341 257 t b f;
#X obj 342 181 pack f;
#X obj 341 279 pack f;
#X connect 1 0 0 0;
#X connect 1 0 4 0;
#X connect 2 0 1 0;
#X connect 4 0 5 0;
#X connect 4 0 6 0;
#X connect 5 0 3 0;
#X connect 6 0 3 0;
#X connect 7 0 9 0;
#X connect 8 0 10 0;
#X connect 9 0 11 0;
#X connect 9 1 11 0;
#X connect 10 0 12 0;
#X connect 10 1 12 0;
#X connect 11 0 5 0;
#X connect 12 0 6 0;
#X restore 250 530 pd random;
#X obj 250 427 tgl 15 0 empty empty empty 17 7 0 10 -1 -4033 -4045
0 1;
#X text 759 474 standard;
#N canvas 0 0 450 300 load 0;
#X obj 272 370 s messages;
#X msg 272 341 /load \$1 \$2;
#X obj 319 237 inlet;
#X obj 272 238 inlet;
#X obj 272 306 pack f s;
#X obj 319 267 t b s;
#X obj 388 461 s messages;
#X obj 380 236 bng 15 250 50 0 empty empty empty 17 7 0 10 -1 -28609
-36801;
#X obj 396 358 inlet;
#X msg 386 335 /width \$1 \$2;
#X msg 388 433 /height \$1 \$2;
#X obj 397 284 t b f;
#X obj 397 307 pack f f;
#X obj 396 383 t b f;
#X obj 396 405 pack f f;
#X obj 397 259 inlet;
#X connect 1 0 0 0;
#X connect 1 0 7 0;
#X connect 2 0 5 0;
#X connect 3 0 4 0;
#X connect 3 0 12 0;
#X connect 3 0 14 0;
#X connect 4 0 1 0;
#X connect 5 0 4 0;
#X connect 5 1 4 1;
#X connect 7 0 9 0;
#X connect 7 0 10 0;
#X connect 8 0 13 0;
#X connect 9 0 6 0;
#X connect 10 0 6 0;
#X connect 11 0 12 0;
#X connect 11 1 12 1;
#X connect 12 0 9 0;
#X connect 13 0 14 0;
#X connect 13 1 14 1;
#X connect 14 0 10 0;
#X connect 15 0 11 0;
#X restore 56 530 pd load;
#X obj 56 393 hradio 15 0 0 3 empty empty empty 0 -8 0 10 -1 -12225
-44993 1;
#X text 59 371 layer;
#N canvas 0 0 450 300 filter 0;
#X obj 211 488 s messages;
#X msg 227 463 /filter \$1 \$2;
#X obj 227 437 pack f f;
#X obj 275 408 t b f;
#X obj 275 381 inlet;
#X obj 227 381 inlet;
#X msg 211 343 /filterMode \$1 \$2;
#X obj 211 319 pack f f;
#X obj 229 292 t b f;
#X obj 229 262 inlet;
#X obj 427 474 s messages;
#X msg 427 448 /feedback \$1 \$2;
#X obj 427 420 pack f f;
#X obj 445 394 t b f;
#X obj 445 367 inlet;
#X connect 1 0 0 0;
#X connect 2 0 1 0;
#X connect 3 0 2 0;
#X connect 3 1 2 1;
#X connect 4 0 3 0;
#X connect 5 0 2 0;
#X connect 5 0 7 0;
#X connect 5 0 12 0;
#X connect 6 0 0 0;
#X connect 7 0 6 0;
#X connect 8 0 7 0;
#X connect 8 1 7 1;
#X connect 9 0 8 0;
#X connect 11 0 10 0;
#X connect 12 0 11 0;
#X connect 13 0 12 0;
#X connect 13 1 12 1;
#X connect 14 0 13 0;
#X restore 49 252 pd filter;
#X obj 83 166 tgl 15 0 empty empty empty 17 7 0 10 -1 -12225 -28609
0 1;
#X text 1389 235 X;
#X text 1430 235 Y;
#X obj 49 75 hradio 15 0 0 3 empty empty empty 0 -8 0 10 -1 -12225
-44993 0;
#X text 52 53 layer;
#X obj 66 120 hradio 15 0 0 38 empty empty empty 0 -8 0 10 -1 -4044
-36801 0;
#X obj 100 214 tgl 15 0 empty empty empty 17 7 0 10 -1 -12225 -28609
0 1;
#X text 68 97 choose filter;
#X text 80 147 enable/disable;
#X text 96 192 feedback filter;
#X text 297 21 FILTER CONTROL;
#X text 887 15 COLOR CONTROL;
#X text 1327 20 TRANSFORMATION CONTROL;
#X text 102 483 set height;
#X text 86 442 set width;
#N canvas 0 0 450 300 free 0;
#X obj 182 444 s messages;
#X msg 182 411 /free \$1;
#X obj 182 374 inlet;
#X connect 1 0 0 0;
#X connect 2 0 1 0;
#X restore 185 530 pd free;
#X obj 185 499 hradio 15 0 0 3 empty empty empty 0 -8 0 10 -1 -12225
-44993 0;
#X text 188 477 layer;
#N canvas 0 0 450 300 fullscreen 0;
#X obj 183 246 s messages;
#X msg 183 224 /fullscreen \$1;
#X obj 183 194 inlet;
#X connect 1 0 0 0;
#X connect 2 0 1 0;
#X restore 522 530 pd fullscreen;
#X obj 522 509 tgl 15 0 empty empty empty 17 7 0 10 -1 -4033 -4045
0 1;
#N canvas 0 0 450 300 clean 0;
#X obj 134 280 s messages;
#X msg 134 255 /clean \$1;
#X obj 134 223 inlet;
#X connect 1 0 0 0;
#X connect 2 0 1 0;
#X restore 522 471 pd clean;
#X obj 522 449 bng 15 250 50 0 empty empty empty 17 7 0 10 -1 -28609
-36801;
#X text 300 335 VIDEO CONTROL;
#X text 1625 20 CONNECT CINEVIVO;
#X msg 86 462 1920;
#X msg 102 504 1020;
#X text 261 449 set width;
#X msg 261 469 1920;
#X text 301 474 set height;
#X msg 301 495 1020;
#X text 911 368 VISUAL CONTROL;
#X obj 128 405 bng 15 250 50 0 empty empty empty 17 7 0 10 -1 -28609
-36801;
#X text 120 387 start;
#X obj 334 154 hradio 15 0 0 3 empty empty empty 0 -8 0 10 -1 -20417
-4036 0;
#X obj 356 191 hradio 15 0 0 3 empty empty empty 0 -8 0 10 -1 -20417
-4036 0;
#X obj 379 229 hradio 15 0 0 3 empty empty empty 0 -8 0 10 -1 -20417
-4036 0;
#N canvas 0 0 450 300 blend 0;
#X obj 99 274 s messages;
#X obj 99 211 pack f f f;
#X obj 170 185 t b f;
#X msg 99 246 /blend \$1 \$2 \$3;
#X obj 123 182 t b f;
#X obj 99 122 inlet;
#X obj 124 150 inlet;
#X obj 170 150 inlet;
#X connect 1 0 3 0;
#X connect 2 0 1 0;
#X connect 2 1 1 2;
#X connect 3 0 0 0;
#X connect 4 0 1 0;
#X connect 4 1 1 1;
#X connect 5 0 1 0;
#X connect 6 0 4 0;
#X connect 7 0 2 0;
#X restore 334 252 pd blend;
#X text 379 212 2nd layer;
#X text 354 173 1st layer;
#X text 334 136 blend;
#X obj 1266 408 hsl 200 15 0 1920 0 0 empty empty empty -2 -8 0 10
-1 -36801 -4033 0 1;
#X obj 1281 428 hsl 200 15 0 1020 0 0 empty empty empty -2 -8 0 10
-1 -36801 -4033 0 1;
#X obj 1294 456 hsl 200 15 0 1920 0 0 empty empty empty -2 -8 0 10
-1 -36801 -4033 0 1;
#X obj 1308 477 hsl 200 15 0 1020 0 0 empty empty empty -2 -8 0 10
-1 -36801 -4033 0 1;
#X obj 1322 505 hsl 200 15 0 1920 0 0 empty empty empty -2 -8 0 10
-1 -36801 -4033 0 1;
#X obj 1336 526 hsl 200 15 0 1020 0 0 empty empty empty -2 -8 0 10
-1 -36801 -4033 0 1;
#X obj 1350 555 hsl 200 15 0 1920 0 0 empty empty empty -2 -8 0 10
-1 -36801 -4033 0 1;
#X obj 1364 575 hsl 200 15 0 1020 0 0 empty empty empty -2 -8 0 10
-1 -36801 -4033 0 1;
#X obj 1252 383 hradio 15 0 0 3 empty empty empty 0 -8 0 10 -1 -12225
-44993 0;
#X text 1255 364 layer;
#N canvas 13 536 1894 507 points 0;
#X obj 91 321 s messages;
#X msg 91 293 /points \$1 \$2 \$3 \$4 %5 \$6 \$7 \$8 \$9;
#X obj 91 264 pack f f f f f f f f f;
#X obj 107 226 t b f;
#X obj 152 226 t b f;
#X obj 196 226 t b f;
#X obj 243 226 t b f;
#X obj 287 226 t b f;
#X obj 332 226 t b f;
#X obj 378 226 t b f;
#X obj 423 226 t b f;
#X obj 91 172 inlet;
#X obj 107 128 inlet;
#X obj 151 127 inlet;
#X obj 196 126 inlet;
#X obj 242 126 inlet;
#X obj 288 126 inlet;
#X obj 335 125 inlet;
#X obj 380 126 inlet;
#X obj 425 125 inlet;
#X msg 151 95 0;
#X obj 197 46 inlet;
#X msg 195 96 860;
#X msg 266 95 1020;
#X connect 1 0 0 0;
#X connect 2 0 1 0;
#X connect 3 0 2 0;
#X connect 3 1 2 1;
#X connect 4 0 2 0;
#X connect 4 1 2 2;
#X connect 5 0 2 0;
#X connect 5 1 2 3;
#X connect 6 0 2 0;
#X connect 6 1 2 4;
#X connect 7 0 2 0;
#X connect 7 1 2 5;
#X connect 8 0 2 0;
#X connect 8 1 2 6;
#X connect 9 0 2 0;
#X connect 10 0 2 0;
#X connect 10 1 2 7;
#X connect 11 0 2 0;
#X connect 12 0 3 0;
#X connect 13 0 4 0;
#X connect 14 0 5 0;
#X connect 15 0 6 0;
#X connect 16 0 7 0;
#X connect 17 0 8 0;
#X connect 18 0 9 0;
#X connect 19 0 10 0;
#X connect 20 0 4 0;
#X connect 20 0 6 0;
#X connect 20 0 7 0;
#X connect 20 0 3 0;
#X connect 21 0 20 0;
#X connect 21 0 22 0;
#X connect 21 0 23 0;
#X connect 22 0 5 0;
#X connect 22 0 9 0;
#X connect 23 0 8 0;
#X connect 23 0 10 0;
#X restore 1252 608 pd points;
#X text 1387 331 MAPPING;
#X obj 1405 608 bng 15 250 50 0 empty empty empty 17 7 0 10 -1 -28609
-36801;
#X text 1423 607 reset;
#X text 1477 405 up left X;
#X text 1490 426 up left Y;
#X text 1503 455 up right X;
#X text 1517 476 up right Y;
#X text 1532 504 down left X;
#X text 1545 523 down left Y;
#X text 1573 572 down right Y;
#X text 1557 553 down right x;
#X msg 70 417 ah1;
#X obj 447 207 hradio 15 0 0 3 empty empty empty 0 -8 0 10 -1 -12225
-44993 1;
#X text 450 185 layer;
#X obj 457 228 hsl 180 15 0 100 0 0 empty empty empty -2 -8 0 10 -1
-36801 -4033 0 1;
#N canvas 0 0 450 300 blur 0;
#X obj 79 188 s messages;
#X obj 79 127 pack f f;
#X msg 79 155 /blur \$1 \$2;
#X obj 97 103 t b f;
#X obj 69 62 inlet;
#X obj 121 45 inlet;
#X connect 1 0 2 0;
#X connect 2 0 0 0;
#X connect 3 0 1 0;
#X connect 3 1 1 1;
#X connect 4 0 1 0;
#X connect 5 0 3 0;
#X restore 447 252 pd blur;
#X connect 8 0 7 0;
#X connect 11 0 12 1;
#X connect 12 0 14 0;
#X connect 13 0 12 0;
#X connect 15 0 16 0;
#X connect 16 0 17 1;
#X connect 17 0 19 0;
#X connect 18 0 17 0;
#X connect 20 0 21 0;
#X connect 21 0 22 1;
#X connect 22 0 24 0;
#X connect 23 0 22 0;
#X connect 25 0 26 0;
#X connect 26 0 27 1;
#X connect 27 0 29 0;
#X connect 28 0 27 0;
#X connect 30 0 31 0;
#X connect 31 0 32 1;
#X connect 32 0 58 0;
#X connect 33 0 32 0;
#X connect 34 0 25 0;
#X connect 35 0 37 0;
#X connect 36 0 30 0;
#X connect 37 0 11 0;
#X connect 38 0 20 0;
#X connect 39 0 15 0;
#X connect 41 0 40 2;
#X connect 42 0 40 1;
#X connect 43 0 40 0;
#X connect 48 0 47 2;
#X connect 50 0 47 1;
#X connect 52 0 47 0;
#X connect 54 0 47 4;
#X connect 56 0 47 3;
#X connect 60 0 59 2;
#X connect 61 0 59 1;
#X connect 62 0 59 0;
#X connect 64 0 63 2;
#X connect 65 0 63 1;
#X connect 66 0 63 0;
#X connect 67 0 68 1;
#X connect 70 0 68 2;
#X connect 72 0 68 3;
#X connect 74 0 68 0;
#X connect 75 0 76 1;
#X connect 76 0 78 0;
#X connect 77 0 76 0;
#X connect 79 0 80 0;
#X connect 80 0 75 0;
#X connect 82 0 81 1;
#X connect 83 0 81 0;
#X connect 88 0 82 0;
#X connect 90 0 89 2;
#X connect 91 0 89 1;
#X connect 92 0 89 0;
#X connect 97 0 96 1;
#X connect 99 0 96 4;
#X connect 101 0 96 3;
#X connect 103 0 96 0;
#X connect 105 0 96 2;
#X connect 108 0 107 1;
#X connect 110 0 107 0;
#X connect 111 0 107 2;
#X connect 112 0 107 3;
#X connect 115 0 114 0;
#X connect 118 0 117 0;
#X connect 121 0 120 2;
#X connect 124 0 120 0;
#X connect 126 0 120 1;
#X connect 127 0 120 3;
#X connect 137 0 136 0;
#X connect 140 0 139 0;
#X connect 142 0 141 0;
#X connect 145 0 117 3;
#X connect 146 0 117 2;
#X connect 148 0 114 2;
#X connect 150 0 114 2;
#X connect 152 0 183 0;
#X connect 152 0 145 0;
#X connect 152 0 146 0;
#X connect 154 0 157 0;
#X connect 155 0 157 1;
#X connect 156 0 157 2;
#X connect 161 0 171 1;
#X connect 162 0 171 2;
#X connect 163 0 171 3;
#X connect 164 0 171 5;
#X connect 165 0 171 6;
#X connect 166 0 171 7;
#X connect 167 0 171 8;
#X connect 168 0 171 9;
#X connect 169 0 171 0;
#X connect 173 0 171 4;
#X connect 183 0 117 1;
#X connect 184 0 187 0;
#X connect 186 0 187 1;
